<svg version="1.2" xmlns="http://www.w3.org/2000/svg" viewBox="0 0 27 33" width="27" height="33"><style>.a{fill:#545454}</style><path fill-rule="evenodd" class="a" d="m26.4 13.6v15.9c0 1.5-1.2 2.8-2.8 2.8h-20.2c-1.5 0-2.8-1.3-2.8-2.8v-15.9c0-1.5 1.3-2.8 2.8-2.8h1.9v-2.4c0-4.5 3.7-8.2 8.2-8.2 4.5 0 8.2 3.7 8.2 8.2v2.4h1.9c1.6 0 2.8 1.3 2.8 2.8zm-17.4-2.8h9v-2.4c0-2.5-2-4.5-4.5-4.5-2.5 0-4.5 2-4.5 4.5zm8.3 10.8c0-2-1.6-3.6-3.6-3.6-1.9 0-3.5 1.6-3.5 3.6 0 1.5 0.9 2.8 2.3 3.3v4.1c0 0.1 0.1 0.3 0.3 0.3h1.9c0.2 0 0.3-0.2 0.3-0.3v-4.1c1.4-0.5 2.3-1.8 2.3-3.3z"/></svg>